<?xml version="1.0" encoding="UTF-8"?>
<svg xmlns="http://www.w3.org/2000/svg" xmlns:xlink="http://www.w3.org/1999/xlink" width="375pt" height="374.999991pt" viewBox="0 0 375 374.999991" version="1.2">
<defs>
<clipPath id="clip1">
  <path d="M 75 268 L 300 268 L 300 317.359375 L 75 317.359375 Z M 75 268 "/>
</clipPath>
<clipPath id="clip2">
  <path d="M 75 268 L 143 268 L 143 317.359375 L 75 317.359375 Z M 75 268 "/>
</clipPath>
</defs>
<g id="surface1">
<path style=" stroke:none;fill-rule:nonzero;fill:rgb(100%,53.329468%,61.959839%);fill-opacity:1;" d="M 98.855469 65.308594 C 96.097656 60.035156 89.675781 57.867188 84.289062 60.394531 L 78.21875 63.234375 C 72.832031 65.761719 70.386719 72.085938 72.671875 77.582031 L 115.316406 180.109375 L 150.3125 163.703125 Z M 98.855469 65.308594 "/>
<path style=" stroke:none;fill-rule:nonzero;fill:rgb(98.429871%,89.7995%,78.42865%);fill-opacity:1;" d="M 263.894531 125.351562 C 263.894531 150.253906 243.71875 170.441406 218.828125 170.441406 C 193.9375 170.441406 173.757812 150.253906 173.757812 125.351562 C 173.757812 100.449219 193.9375 80.265625 218.828125 80.265625 C 243.71875 80.265625 263.894531 100.449219 263.894531 125.351562 Z M 263.894531 125.351562 "/>
<path style=" stroke:none;fill-rule:nonzero;fill:rgb(100%,45.489502%,56.079102%);fill-opacity:1;" d="M 77.921875 63.394531 C 72.75 66.011719 70.429688 72.1875 72.671875 77.582031 L 115.316406 180.109375 L 150.3125 163.703125 L 124.464844 114.28125 C 99.359375 110.089844 79.910156 89.191406 77.921875 63.394531 Z M 77.921875 63.394531 "/>
<path style=" stroke:none;fill-rule:nonzero;fill:rgb(98.429871%,85.488892%,69.799805%);fill-opacity:1;" d="M 201.5625 125.351562 C 201.5625 150.253906 181.386719 170.441406 156.496094 170.441406 C 131.605469 170.441406 111.429688 150.253906 111.429688 125.351562 C 111.429688 100.449219 131.605469 80.265625 156.496094 80.265625 C 168.449219 80.265625 179.910156 85.011719 188.363281 93.46875 C 196.816406 101.925781 201.5625 113.394531 201.5625 125.351562 Z M 201.5625 125.351562 "/>
<path style=" stroke:none;fill-rule:nonzero;fill:rgb(98.429871%,89.7995%,78.42865%);fill-opacity:1;" d="M 173.710938 173.378906 C 173.710938 198.28125 153.53125 218.46875 128.640625 218.46875 C 103.75 218.46875 83.574219 198.28125 83.574219 173.378906 C 83.574219 148.480469 103.75 128.292969 128.640625 128.292969 C 153.53125 128.292969 173.710938 148.480469 173.710938 173.378906 Z M 173.710938 173.378906 "/>
<path style=" stroke:none;fill-rule:nonzero;fill:rgb(98.429871%,85.488892%,69.799805%);fill-opacity:1;" d="M 291.75 173.378906 C 291.75 198.28125 271.574219 218.46875 246.679688 218.46875 C 221.789062 218.46875 201.613281 198.28125 201.613281 173.378906 C 201.613281 148.480469 221.789062 128.292969 246.679688 128.292969 C 271.574219 128.292969 291.75 148.480469 291.75 173.378906 Z M 291.75 173.378906 "/>
<path style=" stroke:none;fill-rule:nonzero;fill:rgb(100%,93.728638%,87.838745%);fill-opacity:1;" d="M 232.730469 168.042969 C 232.730469 192.945312 212.554688 213.132812 187.660156 213.132812 C 162.769531 213.132812 142.59375 192.945312 142.59375 168.042969 C 142.59375 143.144531 162.769531 122.957031 187.660156 122.957031 C 212.554688 122.957031 232.730469 143.144531 232.730469 168.042969 Z M 232.730469 168.042969 "/>
<path style=" stroke:none;fill-rule:nonzero;fill:rgb(98.429871%,85.488892%,69.799805%);fill-opacity:1;" d="M 155.015625 200.140625 C 128.515625 200.140625 107.035156 178.652344 107.035156 152.140625 C 107.035156 144.796875 108.6875 137.839844 111.632812 131.617188 C 95.175781 138.332031 83.574219 154.5 83.574219 173.378906 C 83.574219 198.28125 103.75 218.46875 128.640625 218.46875 C 144.050781 218.46875 157.648438 210.730469 165.777344 198.925781 C 162.320312 199.722656 158.714844 200.140625 155.015625 200.140625 Z M 155.015625 200.140625 "/>
<path style=" stroke:none;fill-rule:nonzero;fill:rgb(100%,53.329468%,61.959839%);fill-opacity:1;" d="M 303.019531 205.4375 C 287.808594 254.722656 241.914062 290.535156 187.660156 290.535156 C 133.410156 290.535156 87.511719 254.722656 72.308594 205.4375 L 187.683594 189.390625 Z M 303.019531 205.4375 "/>
<path style=" stroke:none;fill-rule:nonzero;fill:rgb(100%,45.489502%,56.079102%);fill-opacity:1;" d="M 117.777344 268.242188 L 147.28125 268.242188 C 123.558594 255.167969 106.878906 228.902344 105.351562 200.84375 L 72.308594 205.4375 C 80.214844 231.0625 96.417969 253.039062 117.777344 268.242188 Z M 117.777344 268.242188 "/>
<g clip-path="url(#clip1)" clip-rule="nonzero">
<path style=" stroke:none;fill-rule:nonzero;fill:rgb(98.429871%,89.7995%,78.42865%);fill-opacity:1;" d="M 282.5625 268.242188 L 92.761719 268.242188 C 80.566406 268.242188 72.363281 280.738281 77.203125 291.9375 C 83.9375 307.503906 99.269531 317.582031 116.226562 317.582031 L 259.097656 317.582031 C 276.050781 317.582031 291.386719 307.503906 298.117188 291.9375 C 302.960938 280.738281 294.753906 268.242188 282.5625 268.242188 Z M 282.5625 268.242188 "/>
</g>
<path style=" stroke:none;fill-rule:nonzero;fill:rgb(97.648621%,84.709167%,53.329468%);fill-opacity:1;" d="M 305.914062 194.113281 C 305.128906 197.957031 304.160156 201.734375 303.019531 205.4375 L 72.308594 205.4375 C 71.195312 201.847656 70.25 198.179688 69.480469 194.449219 C 66.835938 181.730469 76.457031 169.773438 89.433594 169.773438 L 285.890625 169.773438 C 298.734375 169.773438 308.484375 181.523438 305.914062 194.113281 Z M 305.914062 194.113281 "/>
<path style=" stroke:none;fill-rule:nonzero;fill:rgb(100%,100%,100%);fill-opacity:1;" d="M 156.496094 242.988281 C 156.496094 251.007812 148.335938 257.507812 138.273438 257.507812 C 128.207031 257.507812 120.050781 251.007812 120.050781 242.988281 C 120.050781 234.96875 128.207031 228.46875 138.273438 228.46875 C 148.335938 228.46875 156.496094 234.96875 156.496094 242.988281 Z M 156.496094 242.988281 "/>
<path style=" stroke:none;fill-rule:nonzero;fill:rgb(100%,100%,100%);fill-opacity:1;" d="M 255.273438 242.988281 C 255.273438 251.007812 247.117188 257.507812 237.050781 257.507812 C 226.988281 257.507812 218.828125 251.007812 218.828125 242.988281 C 218.828125 234.96875 226.988281 228.46875 237.050781 228.46875 C 247.117188 228.46875 255.273438 234.96875 255.273438 242.988281 Z M 255.273438 242.988281 "/>
<path style=" stroke:none;fill-rule:nonzero;fill:rgb(25.878906%,24.308777%,30.979919%);fill-opacity:1;" d="M 148.894531 232.90625 C 146.742188 232.90625 144.996094 231.164062 144.996094 229.011719 L 144.996094 221.558594 C 144.996094 219.40625 146.742188 217.660156 148.894531 217.660156 C 151.042969 217.660156 152.789062 219.40625 152.789062 221.558594 L 152.789062 229.011719 C 152.789062 231.164062 151.042969 232.90625 148.894531 232.90625 Z M 148.894531 232.90625 "/>
<path style=" stroke:none;fill-rule:nonzero;fill:rgb(25.878906%,24.308777%,30.979919%);fill-opacity:1;" d="M 226.429688 232.90625 C 224.28125 232.90625 222.535156 231.164062 222.535156 229.011719 L 222.535156 221.558594 C 222.535156 219.40625 224.28125 217.660156 226.429688 217.660156 C 228.582031 217.660156 230.328125 219.40625 230.328125 221.558594 L 230.328125 229.011719 C 230.328125 231.164062 228.582031 232.90625 226.429688 232.90625 Z M 226.429688 232.90625 "/>
<path style=" stroke:none;fill-rule:nonzero;fill:rgb(25.878906%,24.308777%,30.979919%);fill-opacity:1;" d="M 187.660156 237.34375 C 182.617188 237.34375 177.820312 235.160156 174.503906 231.351562 C 173.089844 229.726562 173.261719 227.265625 174.878906 225.851562 C 176.503906 224.4375 178.964844 224.605469 180.375 226.230469 C 182.21875 228.339844 184.871094 229.550781 187.664062 229.550781 C 190.453125 229.550781 193.109375 228.339844 194.945312 226.230469 C 196.359375 224.605469 198.820312 224.4375 200.441406 225.851562 C 202.066406 227.265625 202.234375 229.726562 200.820312 231.351562 C 197.5 235.160156 192.703125 237.34375 187.660156 237.34375 Z M 187.660156 237.34375 "/>
<path style=" stroke:none;fill-rule:nonzero;fill:rgb(98.81897%,79.60968%,53.329468%);fill-opacity:1;" d="M 105.234375 196.640625 C 105.234375 187.175781 106.992188 178.117188 110.191406 169.773438 L 89.433594 169.773438 C 76.457031 169.773438 66.835938 181.730469 69.480469 194.449219 C 70.25 198.179688 71.195312 201.847656 72.308594 205.4375 L 105.742188 205.4375 C 105.410156 202.527344 105.234375 199.59375 105.234375 196.640625 Z M 105.234375 196.640625 "/>
<g clip-path="url(#clip2)" clip-rule="nonzero">
<path style=" stroke:none;fill-rule:nonzero;fill:rgb(98.429871%,85.488892%,69.799805%);fill-opacity:1;" d="M 116.882812 268.773438 C 116.882812 268.59375 116.886719 268.417969 116.890625 268.242188 L 92.761719 268.242188 C 80.566406 268.242188 72.363281 280.738281 77.203125 291.9375 C 83.9375 307.503906 99.269531 317.582031 116.226562 317.582031 L 142.140625 317.582031 C 126.859375 306.761719 116.882812 288.933594 116.882812 268.773438 Z M 116.882812 268.773438 "/>
</g>
</g>
</svg>
